<?xml version="1.0" encoding="UTF-8"?>
<svg id="Layer_1" xmlns="http://www.w3.org/2000/svg" version="1.1" viewBox="0 0 720 720">
  <defs>
    <style>
      .st0 {
        fill: #CDCDCD;
      }
      .st1 {
        fill: none;
        stroke: #CDCDCD;
        stroke-miterlimit: 22.93;
        stroke-width: 1px;
      }
      .ring {
        fill: #000000;
      }
    </style>
  </defs>
  
  <!-- Black ring shapes -->
  <path class="ring" d="M360,720C161.18,720,0,558.82,0,360S161.18,0,360,0s360,161.18,360,360S558.82,720,360,720z M360,100
    c-143.03,0-260,116.97-260,260s116.97,260,260,260s260-116.97,260-260S503.03,100,360,100z"/>
  
  <!-- Text and other elements in silver -->
  <path class="st0" d="M304.74,361.86h18.73v-66.82l43.38,66.82h18.73v-95.51h-18.73v72.34l-40.82-62.78c-4.18-6.33-9.97-9.57-17.65-9.57h-3.64v95.51Z"/>
  <polygon class="st0" points="410.45,342.12 421.11,336.19 421.11,382.07 270.73,382.07 270.73,242.14 422.39,242.14 422.39,258.69 395.5,258.69 395.5,269.05 422.39,269.05 422.39,296.06 432.94,296.06 432.94,269.05 459.82,269.05 459.82,258.69 432.94,258.69 432.94,231.59 431.65,231.59 422.39,231.59 270.73,231.59 260.18,231.59 260.18,242.14 260.18,382.07 260.18,392.61 270.73,392.61 421.11,392.61 431.65,392.61 431.65,382.07 431.65,325.05 421.11,325.05 407.75,331.63"/>
  
  <!-- Additional text -->
  <path class="st0" d="M304.59,456.4c-7.39,0-19.5-18.64-19.5-30.16,0-3,1.45-4.55,3.59-4.55,7.66,0,19.55,18.64,19.55,30.16,0,3.11-1.29,4.55-3.64,4.55ZM297.25,459.4c12.27,0,19.28-9.69,19.28-20.19,0-11.73-8.73-20.51-20.46-20.51s-19.34,9.69-19.34,20.19c0,11.78,8.84,20.51,20.51,20.51Z"/>
  
  <!-- Small text at bottom -->
  <path class="st0" d="M620.1,418.86c0,6.1-4.94,11.04-11.04,11.04s-11.04-4.94-11.04-11.04,4.94-11.04,11.04-11.04S620.1,412.76,620.1,418.86z"/>
  <path class="st0" d="M614.72,422.8c0,.09.02.12.11.11h1.27c.06,0,.1-.04.1-.11v-6.65h2.49c.06,0,.1-.04.09-.11l-.11-1.12c-.01-.09-.05-.11-.12-.11h-6.13c-.07,0-.1.02-.11.1l-.16,1.15c-.01.06.01.1.07.1h2.51v6.65Z"/>
  <circle class="st1" cx="620.1" cy="418.86" r="11.04" transform="translate(-113.09 269.19) rotate(-22.5)"/>
</svg> 