<?xml version="1.0" encoding="UTF-8"?>
<svg id="Layer_1" xmlns="http://www.w3.org/2000/svg" version="1.1" viewBox="0 0 720 720">
  <!-- Generator: Adobe Illustrator 29.5.1, SVG Export Plug-In . SVG Version: 2.1.0 Build 141)  -->
  <defs>
    <style>
      .st0 {
        fill: #c1c3c3;
      }

      .st1 {
        fill: none;
        stroke: #e6e7e8;
        stroke-miterlimit: 22.93;
        stroke-width: 1px;
      }
    </style>
  </defs>
  <path class="st0" d="M304.74,361.86h18.73v-66.82l43.38,66.82h18.73v-95.51h-18.73v72.34l-40.82-62.78c-4.18-6.33-9.97-9.57-17.65-9.57h-3.64v95.51Z"/>
  <polygon class="st0" points="410.45 342.12 421.11 336.19 421.11 382.07 270.73 382.07 270.73 242.14 422.39 242.14 422.39 258.69 395.5 258.69 395.5 269.05 422.39 269.05 422.39 296.06 432.94 296.06 432.94 269.05 459.82 269.05 459.82 258.69 432.94 258.69 432.94 231.59 431.65 231.59 422.39 231.59 270.73 231.59 260.18 231.59 260.18 242.14 260.18 382.07 260.18 392.61 270.73 392.61 421.11 392.61 431.65 392.61 431.65 382.07 431.65 325.05 421.11 325.05 407.75 331.63 410.45 342.12"/>
  <path class="st0" d="M568.44,458.32h15.53v-.86h-2.14v-20.89c1.07-.48,2.14-.8,3.21-.8,2.2,0,3.21,1.39,3.21,5.57v16.12h-2.14v.86h15.53v-.86h-2.68v-18.43c0-5.46-2.36-8.3-6.91-8.3-3.64,0-6.75,2.09-10.23,5.09v-5.36l-13.77,4.82,3.05,2.62v19.55h-2.68v.86ZM556.39,456.93c-4.39,0-13.66-16.12-13.66-21.37,0-1.66.8-2.62,2.14-2.62,4.71,0,13.71,16.77,13.71,21.26,0,1.82-.75,2.73-2.2,2.73ZM550.39,458.86c10.18,0,15.16-6.27,15.16-14.09,0-8.41-6.37-13.77-15.21-13.77s-14.73,6.11-14.73,13.77c0,8.62,7.07,14.09,14.78,14.09ZM524.73,429.56c3.8,0,5.95-2.41,5.95-6s-2.14-5.95-5.95-5.95-5.95,2.41-5.95,5.95,2.14,6,5.95,6ZM532.77,458.32v-.86h-2.68v-27l-13.77,4.82,3.05,2.62v19.55h-2.68v.86h16.07ZM481.51,458.32h15.53v-.86h-2.14v-20.89c1.07-.48,2.14-.8,3.21-.8,2.2,0,3.21,1.39,3.21,5.57v16.12h-2.14v.86h15.53v-.86h-2.68v-18.43c0-5.46-2.36-8.3-6.91-8.3-3.64,0-6.75,2.09-10.23,5.09v-17.68l-13.77,4.82,3.05,2.62v31.87h-2.68v.86ZM467.47,458.86c6.59,0,12.21-3.43,12.21-9,0-3.32-1.93-6-5.62-7.98l-4.02-2.14c-3.16-1.66-4.02-3-4.02-4.87,0-1.5,1.18-2.84,3.54-2.84.27,0,.64.05.91.16l6.21,8.84h.05l2.09-8.46c-2.62-.96-5.41-1.55-8.89-1.55-7.12,0-11.52,3.54-11.52,8.95,0,4.07,2.14,6.59,6.59,8.95l3.54,1.87c2.25,1.18,3.21,2.09,3.21,3.7,0,2.2-1.61,3.43-3.96,3.43-.64,0-1.02-.05-1.77-.27l-6.64-8.89h-.05l-1.66,8.73c3.75,1.12,7.28,1.39,9.8,1.39ZM440.75,454.68c-2.14,0-3.21-1.34-3.21-3.86,0-2.84,1.23-4.87,4.45-5.78v9.48c-.48.11-.91.16-1.23.16ZM455.37,458.32v-.86h-2.68v-14.84c0-7.77-3.59-11.62-10.34-11.62-5.36,0-9.32,2.2-12.96,6.27l.27.27c1.82-1.39,3.48-2.04,5.89-2.04,4.07,0,6.43,2.95,6.43,8.84-8.89.96-14.14,4.23-14.14,9.16,0,3.37,2.36,5.36,5.84,5.36,2.95,0,5.78-1.45,8.3-3.59v3.05h13.39ZM393.07,458.32h22.23v-.86h-6.16v-18.64c3.11.32,7.34,3.27,9.11,6.21h.05v-13.34h-.05c-1.77,3-6,5.95-9.11,6.27v-17.35h.27c5.73,0,10.07,3.27,15.69,11.52h.05v-12.37h-32.57l4.77,2.89v34.82h-4.28v.86ZM363.51,432.88c2.3,0,5.41,3.96,5.41,8.62,0,2.73-.59,4.87-2.09,6.8-3.21-3.32-5.52-7.82-5.52-12.27,0-1.98.8-3.16,2.2-3.16ZM379.2,453.45c-.48.11-1.02.16-1.55.16-3.59,0-7.45-1.98-10.5-4.98,6.43-2.41,9.86-6.32,9.86-10.77,0-3.91-3.48-6.86-8.52-6.86-8.57,0-13.82,6.48-13.82,14.3,0,8.3,6.21,13.55,13.77,13.55,4.98,0,8.57-1.93,10.82-5.36l-.05-.05ZM319.16,458.32h15.53v-.86h-2.14v-20.89c1.07-.48,2.14-.8,3.21-.8,2.2,0,3.21,1.39,3.21,5.57v16.12h-2.14v.86h15.53v-.86h-2.68v-18.43c0-5.46-2.36-8.3-6.91-8.3-3.64,0-6.75,2.09-10.23,5.09v-5.36l-13.77,4.82,3.05,2.62v19.55h-2.68v.86ZM304.59,456.4c-7.39,0-19.5-18.64-19.5-30.16,0-3,1.45-4.55,3.59-4.55,7.66,0,19.55,18.64,19.55,30.16,0,3.11-1.29,4.55-3.64,4.55ZM297.25,459.4c12.27,0,19.28-9.69,19.28-20.19,0-11.73-8.73-20.51-20.46-20.51s-19.34,9.69-19.34,20.19c0,11.78,8.84,20.51,20.51,20.51ZM262.11,458.86c6.59,0,12.21-3.43,12.21-9,0-3.32-1.93-6-5.62-7.98l-4.02-2.14c-3.16-1.66-4.02-3-4.02-4.87,0-1.5,1.18-2.84,3.54-2.84.27,0,.64.05.91.16l6.21,8.84h.05l2.09-8.46c-2.62-.96-5.41-1.55-8.89-1.55-7.12,0-11.52,3.54-11.52,8.95,0,4.07,2.14,6.59,6.59,8.95l3.54,1.87c2.25,1.18,3.21,2.09,3.21,3.7,0,2.2-1.61,3.43-3.96,3.43-.64,0-1.02-.05-1.77-.27l-6.64-8.89h-.05l-1.66,8.73c3.75,1.12,7.28,1.39,9.8,1.39ZM247.33,457.47v-26.94l-13.77,4.82,3.05,2.62v15.37c-.91.32-1.87.54-2.73.54-2.68,0-3.05-1.77-3.05-6.27v-16.82l-13.77,4.82,3.05,2.62v11.52c0,6.37,2.09,9.16,6.91,9.16,3,0,6.05-2.14,9.59-4.71v4.12h13.39v-.86h-2.68ZM199.77,458.32h16.07v-.86h-2.68v-39.31l-13.77,4.82,3.05,2.62v31.87h-2.68v.86ZM178.45,420.62c4.29,0,7.18,3.7,7.18,10.71s-3.11,11.68-7.77,11.73v-22.44h.59ZM161.79,458.32h20.89v-.86h-4.82v-13.55c12.86-.11,20.09-4.71,20.09-12.64,0-6.64-6.05-11.52-19.23-11.52h-17.41l4.77,2.89v34.82h-4.28v.86ZM119.69,458.32h13.5v-.86h-6.48l-2.14-31.49,27.48,32.35h2.79v-35.78l4.82-2.79h-13.71l4.82,2.79,3,20.57-19.07-23.35h-16.34l5.14,3.11-.86,34.6h-2.95v.86Z"/>
  <path class="st0" d="M578.04,488.18h2.02v-6.42c0-2.9,0-5.62-.12-7.44h.03c1.01,1.8,6.23,10.39,8.35,13.87h2.65v-16.04h-2.01v6.26c0,2.62-.01,5.15.14,7.21h-.03c-.9-1.74-5.91-9.72-8.21-13.48h-2.82v16.04ZM554.98,480.08c0-3.42,1.59-6.37,5.23-6.37s5.2,2.92,5.2,6.38-1.48,6.5-5.21,6.5c-3.45,0-5.22-3.04-5.22-6.51ZM552.75,480.15c0,4.6,2.63,8.25,7.36,8.25,5.05,0,7.53-3.93,7.53-8.34,0-4.77-2.83-8.16-7.34-8.16-4.85,0-7.54,3.66-7.54,8.25ZM540.22,488.18h2.13v-16.04h-2.13v16.04ZM523.52,488.18h2.14v-14.22h5.19v-1.82h-12.51v1.82h5.18v14.22ZM505.22,473.86h.02c.35,1.22,1.19,3.46,2.72,7.68h-5.3c1.23-3.61,2.17-6.32,2.56-7.68ZM498.26,488.18h2.12l1.73-4.81h6.4l1.78,4.81h2.27l-5.96-16.04h-2.62l-5.71,16.04ZM475.63,488.18h2.02v-6.42c0-2.9,0-5.62-.12-7.44h.03c1.01,1.8,6.23,10.39,8.35,13.87h2.65v-16.04h-2.01v6.26c0,2.62-.01,5.15.14,7.21h-.03c-.9-1.74-5.91-9.72-8.21-13.48h-2.82v16.04ZM462.07,488.18h2.13v-16.04h-2.13v16.04ZM445.37,488.18h2.14v-14.22h5.19v-1.82h-12.51v1.82h5.18v14.22ZM420.59,476.23c0,2.26,1.31,3.55,5.09,4.47,3.22.78,4.01,1.68,4.01,3.29,0,1.52-.99,2.69-3.49,2.69-2.33,0-3.64-1.04-4.08-2.96h-2.16c.33,2.46,2.07,4.67,6.11,4.67s5.84-2.03,5.84-4.62c0-2.06-.81-3.84-5.38-4.95-2.81-.68-3.72-1.27-3.72-2.78s1.1-2.41,3.05-2.41c2.34,0,3.23,1.17,3.52,2.6h2.17c-.22-2.11-1.79-4.32-5.61-4.32-3.58,0-5.34,1.94-5.34,4.33ZM399.39,476.23c0,2.26,1.31,3.55,5.09,4.47,3.22.78,4.01,1.68,4.01,3.29,0,1.52-.99,2.69-3.49,2.69-2.32,0-3.64-1.04-4.08-2.96h-2.17c.33,2.46,2.07,4.67,6.11,4.67s5.84-2.03,5.84-4.62c0-2.06-.81-3.84-5.38-4.95-2.81-.68-3.72-1.27-3.72-2.78s1.1-2.41,3.05-2.41c2.34,0,3.23,1.17,3.52,2.6h2.17c-.22-2.11-1.79-4.32-5.61-4.32-3.58,0-5.34,1.94-5.34,4.33ZM378.91,488.18h10.57l.27-1.82h-8.76v-5.68h7.98v-1.82h-7.98v-4.9h8.36v-1.82h-10.45v16.04ZM359.02,473.92h3.73c2.18,0,3.29.97,3.29,2.67,0,1.8-1.08,2.73-3.53,2.73h-3.49v-5.4ZM356.91,488.18h2.11v-7.07h3.28c2.88,0,3.52.99,3.52,3.28v.34c0,1.51-.02,2.76.27,3.45h2.07c-.27-.67-.22-2.07-.22-3.18v-.69c0-2.79-1.14-3.76-2.45-4.11,1.54-.42,2.74-1.69,2.74-3.77,0-2.5-1.76-4.29-5.05-4.29h-6.27v16.04ZM335.33,473.94h3.38c3.93,0,5.56,2.93,5.56,6.1,0,3.63-1.8,6.33-5.57,6.33h-3.37v-12.43ZM333.21,488.18h5.66c4.66,0,7.63-3.44,7.63-8.18s-3.05-7.86-7.56-7.86h-5.73v16.04ZM303.59,488.18h2.14v-14.22h5.19v-1.82h-12.51v1.82h5.18v14.22ZM276.85,488.18h2.36l4.28-6.59h.02l4.28,6.59h2.48l-5.51-8.31,5.31-7.73h-2.34l-4.15,6.24h-.02l-4.05-6.24h-2.47l5.22,7.92-5.42,8.13ZM257.17,488.18h10.58l.27-1.82h-8.76v-5.68h7.98v-1.82h-7.98v-4.9h8.36v-1.82h-10.45v16.04ZM232.8,488.18h2.02v-6.42c0-2.9,0-5.62-.12-7.44h.03c1.01,1.8,6.23,10.39,8.35,13.87h2.65v-16.04h-2.01v6.26c0,2.62-.01,5.15.14,7.21h-.03c-.9-1.74-5.91-9.72-8.21-13.48h-2.82v16.04ZM200.11,473.92h3.73c2.18,0,3.29.97,3.29,2.67,0,1.8-1.08,2.73-3.53,2.73h-3.49v-5.4ZM198,488.18h2.11v-7.07h3.28c2.88,0,3.52.99,3.52,3.28v.34c0,1.51-.02,2.76.27,3.45h2.07c-.27-.67-.22-2.07-.22-3.18v-.69c0-2.79-1.14-3.76-2.45-4.11,1.54-.42,2.74-1.69,2.74-3.77,0-2.5-1.76-4.29-5.05-4.29h-6.27v16.04ZM186.75,472.13h-2.14v9.66c0,3.71-1.7,4.82-4.1,4.82-2.05,0-4.13-1.03-4.13-4.82v-9.66h-2.16v9.69c0,4.93,2.9,6.55,6.24,6.55s6.29-1.5,6.29-6.7v-9.54ZM151.23,480.08c0-3.42,1.59-6.37,5.23-6.37s5.2,2.92,5.2,6.38-1.48,6.5-5.21,6.5c-3.45,0-5.22-3.04-5.22-6.51ZM149,480.15c0,4.6,2.63,8.25,7.36,8.25,5.05,0,7.53-3.93,7.53-8.34,0-4.77-2.83-8.16-7.34-8.16-4.85,0-7.54,3.66-7.54,8.25ZM133.26,488.18h2.14v-5.87c0-.23.04-.31.09-.41l5.83-9.77h-2.27c-1.52,2.59-3.91,6.77-4.6,8.15-.73-1.41-3.06-5.55-4.51-8.15h-2.43l5.65,9.73c.07.11.11.27.11.43v5.89Z"/>
  <path class="st0" d="M614.72,422.8c0,.09.02.12.11.11h1.27c.06,0,.1-.04.1-.11v-6.65h2.49c.06,0,.1-.04.09-.11l-.11-1.12c-.01-.09-.05-.11-.12-.11h-6.13c-.07,0-.1.02-.11.1l-.16,1.15c-.01.06.01.1.07.1h2.51v6.65Z"/>
  <path class="st0" d="M619.83,414.88l-.47,7.94c-.01.09.01.1.09.1h1.23c.07,0,.1-.01.1-.09.12-2.59.22-5.73.23-6.97h.02c.35,1.51,1.33,5.1,1.86,6.97.01.07.04.09.12.09h1.23s.1-.01.11-.1c.49-1.64,1.77-5.76,2.05-6.95h.01c-.01.78.01,4.33.07,6.96,0,.07.04.09.1.09h1.37c.06,0,.1-.02.09-.1l-.33-7.94c-.01-.06-.04-.07-.1-.07h-1.93c-.07,0-.09.04-.11.09-.38,1.27-1.6,5.01-1.86,6.06h-.01c-.25-1.15-1.32-4.81-1.69-6.06-.02-.06-.05-.09-.12-.09h-1.97c-.06,0-.09,0-.1.07"/>
  <circle class="st1" cx="620.1" cy="418.86" r="11.04" transform="translate(-113.09 269.19) rotate(-22.5)"/>
</svg>